<?xml version="1.0" encoding="utf-8"?>
<!-- Generator: Adobe Illustrator 19.2.1, SVG Export Plug-In . SVG Version: 6.00 Build 0)  -->
<svg version="1.1" id="Layer_1" xmlns="http://www.w3.org/2000/svg" xmlns:xlink="http://www.w3.org/1999/xlink" x="0px" y="0px"
	 width="18.2px" height="15px" viewBox="0 0 18.2 15" style="enable-background:new 0 0 18.2 15;" xml:space="preserve">
<style type="text/css">
	.st0{fill:#FFFFFF;}
</style>
<path class="st0" d="M16.3,3.7c0,0.2,0,0.3,0,0.5c0,5-3.8,10.8-10.6,10.8c-2.1,0-4.1-0.6-5.7-1.7c0.3,0,0.6,0.1,0.9,0.1
	c1.8,0,3.4-0.6,4.6-1.6c-1.6,0-3-1.1-3.5-2.6c0.2,0.1,0.5,0.1,0.7,0.1c0.3,0,0.6-0.1,1-0.2c-1.7-0.3-3-1.8-3-3.7c0,0,0,0,0-0.1
	c0.5,0.3,1,0.5,1.7,0.5c-1-0.6-1.7-1.8-1.7-3.1c0-0.7,0.2-1.4,0.5-1.9C3,3,5.8,4.5,8.9,4.6C8.8,4.4,8.8,4.1,8.8,3.8
	c0-2.1,1.7-3.8,3.8-3.8c1,0,2.1,0.5,2.7,1.2C16.2,1,17,0.7,17.7,0.3c-0.2,0.9-0.9,1.6-1.7,2.1c0.7-0.1,1.4-0.3,2.2-0.6
	C17.7,2.5,17,3.1,16.3,3.7z"/>
</svg>
